<svg width="50" height="50" viewBox="0 0 50 50" fill="none" xmlns="http://www.w3.org/2000/svg">
<path d="M25.0496 0H24.9357C11.1641 0 0 11.1674 0 24.9431V25.0569C0 38.8326 11.1641 50 24.9357 50H25.0496C38.8212 50 49.9853 38.8326 49.9853 25.0569V24.9431C49.9853 11.1674 38.8212 0 25.0496 0Z" fill="white"/>
<path d="M37.0752 18.0891V22.8101C36.2504 22.7295 35.1786 22.5421 33.993 22.1076C32.4449 21.5401 31.2926 20.764 30.5379 20.1632V29.7049L30.5186 29.6752C30.5309 29.8643 30.5379 30.057 30.5379 30.2515C30.5379 34.99 26.6834 38.8473 21.9446 38.8473C17.2058 38.8473 13.3513 34.99 13.3513 30.2515C13.3513 25.513 17.2058 21.6539 21.9446 21.6539C22.4087 21.6539 22.864 21.6907 23.3088 21.7625V26.4152C22.8815 26.2628 22.4227 26.1804 21.9446 26.1804C19.7013 26.1804 17.8747 28.0058 17.8747 30.2515C17.8747 32.4972 19.7013 34.3225 21.9446 34.3225C24.1879 34.3225 26.0144 32.4955 26.0144 30.2515C26.0144 30.1674 26.0127 30.0833 26.0074 29.9992V11.457H30.7235C30.741 11.8564 30.7568 12.2593 30.7743 12.6587C30.8058 13.4453 31.086 14.2003 31.5746 14.8186C32.1472 15.5456 32.9931 16.3899 34.1804 17.0644C35.2924 17.6932 36.3362 17.9648 37.0752 18.0926V18.0891Z" fill="#213D34"/>
</svg>
